HIERARCHY
ROOT Hips
{
	OFFSET 0.000000 0.000000 0.000000
	CHANNELS 6 Xposition Yposition Zposition Zrotation Yrotation Xrotation 
	JOINT LHipJoint
	{
		OFFSET 0.000000 0.000000 0.000000
		CHANNELS 3 Zrotation Yrotation Xrotation
		JOINT LeftUpLeg
		{
			OFFSET 1.363060 -1.794630 0.839290
			CHANNELS 3 Zrotation Yrotation Xrotation
			JOINT LeftLeg
			{
				OFFSET 2.448110 -6.726130 0.000000
				CHANNELS 3 Zrotation Yrotation Xrotation
				JOINT LeftFoot
				{
					OFFSET 2.562200 -7.039590 0.000000
					CHANNELS 3 Zrotation Yrotation Xrotation
					JOINT LeftToeBase
					{
						OFFSET 0.157640 -0.433110 2.322550
						CHANNELS 3 Zrotation Yrotation Xrotation
						End Site
						{
							OFFSET 0.000000 0.000000 0.000000
						}
					}
				}
			}
		}
	}
	JOINT RHipJoint
	{
		OFFSET 0.000000 0.000000 0.000000
		CHANNELS 3 Zrotation Yrotation Xrotation
		JOINT RightUpLeg
		{
			OFFSET -1.305520 -1.794630 0.839290
			CHANNELS 3 Zrotation Yrotation Xrotation
			JOINT RightLeg
			{
				OFFSET -2.542530 -6.985550 0.000000
				CHANNELS 3 Zrotation Yrotation Xrotation
				JOINT RightFoot
				{
					OFFSET -2.568260 -7.056230 0.000000
					CHANNELS 3 Zrotation Yrotation Xrotation
					JOINT RightToeBase
					{
						OFFSET -0.164730 -0.452590 2.363150
						CHANNELS 3 Zrotation Yrotation Xrotation
						End Site
						{
							OFFSET 0.000000 0.000000 0.000000
						}
					}
				}
			}
		}
	}
	JOINT LowerBack
	{
		OFFSET 0.000000 0.000000 0.000000
		CHANNELS 3 Zrotation Yrotation Xrotation
		JOINT Spine
		{
			OFFSET 0.028270 2.035590 -0.193380
			CHANNELS 3 Zrotation Yrotation Xrotation
			JOINT Spine1
			{
				OFFSET 0.056720 2.048850 -0.042750
				CHANNELS 3 Zrotation Yrotation Xrotation
				JOINT Neck
				{
					OFFSET 0.000000 0.000000 0.000000
					CHANNELS 3 Zrotation Yrotation Xrotation
					JOINT Neck1
					{
						OFFSET -0.054170 1.746240 0.172020
						CHANNELS 3 Zrotation Yrotation Xrotation
						JOINT Head
						{
							OFFSET 0.104070 1.761360 -0.123970
							CHANNELS 3 Zrotation Yrotation Xrotation
							End Site
							{
								OFFSET 0.000000 0.000000 0.000000
							}
						}
					}
				}
				JOINT LeftShoulder
				{
					OFFSET 0.000000 0.000000 0.000000
					CHANNELS 3 Zrotation Yrotation Xrotation
					JOINT LeftArm
					{
						OFFSET 3.362410 1.200890 -0.311210
						CHANNELS 3 Zrotation Yrotation Xrotation
						JOINT LeftForeArm
						{
							OFFSET 4.983000 -0.000000 -0.000000
							CHANNELS 3 Zrotation Yrotation Xrotation
							JOINT LeftHand
							{
								OFFSET 3.483560 -0.000000 -0.000000
								CHANNELS 3 Zrotation Yrotation Xrotation
								JOINT LeftFingerBase
								{
									OFFSET 0.000000 0.000000 0.000000
									CHANNELS 3 Zrotation Yrotation Xrotation
									JOINT LeftHandIndex1
									{
										OFFSET 0.715260 -0.000000 -0.000000
										CHANNELS 3 Zrotation Yrotation Xrotation
										End Site
										{
											OFFSET 0.000000 0.000000 0.000000
										}
									}
								}
								JOINT LThumb
								{
									OFFSET 0.000000 0.000000 0.000000
									CHANNELS 3 Zrotation Yrotation Xrotation
									End Site
									{
										OFFSET 0.000000 0.000000 0.000000
									}
								}
							}
						}
					}
				}
				JOINT RightShoulder
				{
					OFFSET 0.000000 0.000000 0.000000
					CHANNELS 3 Zrotation Yrotation Xrotation
					JOINT RightArm
					{
						OFFSET -3.136600 1.374050 -0.404650
						CHANNELS 3 Zrotation Yrotation Xrotation
						JOINT RightForeArm
						{
							OFFSET -5.241900 -0.000000 -0.000000
							CHANNELS 3 Zrotation Yrotation Xrotation
							JOINT RightHand
							{
								OFFSET -3.444170 -0.000000 -0.000000
								CHANNELS 3 Zrotation Yrotation Xrotation
								JOINT RightFingerBase
								{
									OFFSET 0.000000 0.000000 0.000000
									CHANNELS 3 Zrotation Yrotation Xrotation
									JOINT RightHandIndex1
									{
										OFFSET -0.622530 -0.000000 -0.000000
										CHANNELS 3 Zrotation Yrotation Xrotation
										End Site
										{
											OFFSET 0.000000 0.000000 0.000000
										}
									}
								}
								JOINT RThumb
								{
									OFFSET 0.000000 0.000000 0.000000
									CHANNELS 3 Zrotation Yrotation Xrotation
									End Site
									{
										OFFSET 0.000000 0.000000 0.000000
									}
								}
							}
						}
					}
				}
			}
		}
	}
}
MOTION
Frames: 8
Frame Time: 0.008333
3.192124 16.663755 -2.298042 101.825412 -86.052329 -115.656415 -6.856958 -4.642479 -0.359406 -22.608557 10.873452 -84.158599 -2.764955 1.367525 23.514553 0.995471 7.828556 12.285884 3.295200 0.000000 -38.027601 11.110933 -1.004667 -5.333101 5.834949 -15.490239 5.382192 1.028882 -2.476697 27.647896 -3.257037 -14.780034 -15.126635 1.517599 -0.000000 -58.230600 -9.127255 -0.813125 4.942847 -2.123600 -0.179111 -1.303294 -4.184999 -0.060099 2.058734 9.558137 -22.293989 -8.190703 -0.636136 -0.031717 -0.219512 0.000000 0.000000 0.000000 3.157249 24.605897 -0.028513 -77.947861 23.467229 -9.869361 -4.246859 -27.476761 0.000969 -3.419186 -0.908172 0.025524 -0.130397 -0.032627 -0.000000 0.000000 0.000000 0.000000 0.000000 0.000000 0.000000 8.449311 -17.642284 -2.116994 62.110640 -7.363087 18.769115 1.105837 58.064239 0.003560 -1.112183 5.803368 -0.059899 0.051516 -0.147189 -0.000000 0.000000 0.000000 0.000000 0.000000 0.000000 0.000000 
3.191773 16.670566 -2.297925 100.720650 -85.876044 -114.911176 -6.844973 -4.442041 -0.675664 -23.411425 11.550971 -83.228472 -2.555194 1.585004 26.189021 1.041638 7.967272 12.087740 3.240200 0.000000 -39.004501 11.204464 -1.042973 -5.184358 5.373797 -15.730138 5.657760 0.990126 -2.440290 27.433311 -3.209428 -14.603126 -14.988991 1.471900 0.000000 -58.677901 -9.059227 -0.825201 4.987219 -2.115122 -0.195110 -1.295718 -4.177716 -0.077342 2.031092 9.550273 -22.314043 -8.187775 -0.655448 -0.033465 -0.217339 0.000000 0.000000 0.000000 3.137827 24.501169 -0.045675 -77.947231 23.346737 -9.583765 -4.238384 -27.429984 0.000800 -3.439513 -0.869622 0.024621 -0.128922 -0.033276 -0.000000 0.000000 0.000000 0.000000 0.000000 0.000000 0.000000 8.535724 -17.646149 -2.118951 62.193279 -7.307405 18.105472 1.120775 57.831190 0.003486 -1.191917 5.777348 -0.063787 0.053077 -0.148413 -0.000000 0.000000 0.000000 0.000000 0.000000 0.000000 0.000000 
3.190009 16.678626 -2.295109 100.577696 -85.660592 -115.086776 -6.870444 -4.259699 -0.969887 -24.163897 12.346628 -82.372855 -2.338918 1.780339 28.879527 1.127941 8.340412 11.662868 3.238200 0.000000 -40.353000 11.236176 -1.087002 -5.014346 5.011469 -15.815765 5.912434 0.953260 -2.405966 27.207551 -3.178850 -14.498294 -14.842734 1.427300 0.000000 -59.055500 -8.974177 -0.825012 4.986722 -2.101204 -0.199785 -1.296238 -4.165226 -0.084412 2.008967 9.522905 -22.311450 -8.182148 -0.673420 -0.035185 -0.213997 0.000000 0.000000 0.000000 3.108446 24.451364 -0.063238 -77.938408 23.226558 -9.316574 -4.226914 -27.459811 0.000722 -3.457768 -0.854193 0.024319 -0.127577 -0.033444 -0.000000 0.000000 0.000000 0.000000 0.000000 0.000000 0.000000 8.594380 -17.618408 -2.122803 62.268336 -7.256099 17.453797 1.134919 57.608977 0.003389 -1.272735 5.742001 -0.067678 0.054554 -0.149664 -0.000000 0.000000 0.000000 0.000000 0.000000 0.000000 0.000000 
3.187389 16.687489 -2.290990 100.995315 -85.414585 -115.789696 -6.917735 -4.093894 -1.242408 -24.800332 13.212193 -81.479009 -2.118273 1.944944 31.472225 1.252729 8.986783 11.183201 3.317601 0.000000 -42.008300 11.238915 -1.130640 -4.834620 4.700732 -15.796688 6.144149 0.917140 -2.374263 26.988174 -3.158179 -14.433297 -14.701796 1.386000 -0.000001 -59.317600 -8.889015 -0.818958 4.957278 -2.086170 -0.198678 -1.302704 -4.150219 -0.086402 1.987209 9.492260 -22.295013 -8.177912 -0.690866 -0.036859 -0.210767 0.000000 0.000000 0.000000 3.081020 24.417335 -0.080124 -77.932771 23.133972 -9.126876 -4.213225 -27.589249 0.000707 -3.492118 -0.857394 0.024620 -0.126227 -0.033147 -0.000000 0.000000 0.000000 0.000000 0.000000 0.000000 0.000000 8.645372 -17.569487 -2.125304 62.328668 -7.201348 16.845813 1.147311 57.408120 0.003253 -1.367271 5.703474 -0.072166 0.056110 -0.150998 -0.000000 0.000000 0.000000 0.000000 0.000000 0.000000 0.000000 
3.183651 16.696381 -2.285239 101.955158 -85.142275 -117.015133 -6.991380 -3.949190 -1.496050 -25.269543 14.141717 -80.512806 -1.896141 2.082956 33.965520 1.404140 9.836543 10.705348 3.453700 -0.000000 -43.452099 11.211189 -1.172695 -4.654001 4.439851 -15.685382 6.378064 0.882493 -2.346189 26.773356 -3.145432 -14.397943 -14.565933 1.346800 -0.000000 -59.511700 -8.794158 -0.805353 4.913109 -2.067682 -0.190395 -1.312415 -4.131043 -0.081721 1.965489 9.455740 -22.262218 -8.177903 -0.705218 -0.038219 -0.208552 0.000000 0.000000 0.000000 3.063850 24.408967 -0.093891 -77.931783 23.058457 -8.975085 -4.196881 -27.794174 0.000772 -3.530631 -0.882160 0.025723 -0.124941 -0.032414 -0.000000 0.000000 0.000000 0.000000 0.000000 0.000000 0.000000 8.675765 -17.495579 -2.126056 62.372127 -7.150083 16.288592 1.157169 57.243267 0.003084 -1.466227 5.666306 -0.076756 0.057545 -0.152472 -0.000000 0.000000 0.000000 0.000000 0.000000 0.000000 0.000000 
3.179014 16.704761 -2.278507 103.206552 -84.855279 -118.518393 -7.086308 -3.822150 -1.728875 -25.534443 15.090595 -79.408780 -1.679064 2.192442 36.291083 1.570059 10.828442 10.314272 3.636800 -0.000000 -44.374400 11.169165 -1.209891 -4.482397 4.207073 -15.522419 6.618314 0.849374 -2.321384 26.568384 -3.135864 -14.370348 -14.440865 1.310399 0.000000 -59.657100 -8.691659 -0.787957 4.865260 -2.046646 -0.178640 -1.323605 -4.109053 -0.073794 1.941902 9.420984 -22.218774 -8.184579 -0.716256 -0.039195 -0.208129 0.000000 0.000000 0.000000 3.067759 24.409928 -0.103516 -77.935436 23.002892 -8.853808 -4.177954 -28.066326 0.000893 -3.572491 -0.922373 0.027228 -0.123701 -0.031330 -0.000000 0.000000 0.000000 0.000000 0.000000 0.000000 0.000000 8.692935 -17.404369 -2.123916 62.397453 -7.101467 15.794461 1.164059 57.122928 0.002886 -1.567934 5.635571 -0.081644 0.058827 -0.154114 -0.000000 0.000000 0.000000 0.000000 0.000000 0.000000 0.000000 
3.173768 16.712282 -2.271656 104.457438 -84.571559 -120.009407 -7.195851 -3.706971 -1.938991 -25.583151 16.006281 -78.113247 -1.473861 2.271874 38.381658 1.737774 11.891717 10.069725 3.857800 -0.000001 -44.613500 11.130773 -1.240454 -4.329296 3.979988 -15.356870 6.863768 0.818311 -2.299256 26.375621 -3.124446 -14.328125 -14.330119 1.276900 0.000000 -59.760800 -8.585921 -0.773307 4.824103 -2.024355 -0.169746 -1.334672 -4.086003 -0.068677 1.914253 9.397143 -22.174439 -8.199256 -0.724632 -0.039810 -0.209939 0.000000 0.000000 0.000000 3.099257 24.392055 -0.108831 -77.943199 22.976349 -8.777044 -4.157022 -28.403958 0.001050 -3.623841 -0.972099 0.029234 -0.122452 -0.029960 -0.000000 0.000000 0.000000 0.000000 0.000000 0.000000 0.000000 8.709023 -17.309839 -2.117429 62.402991 -7.049010 15.379961 1.167827 57.048942 0.002663 -1.674737 5.615692 -0.086733 0.060013 -0.155902 -0.000000 0.000000 0.000000 0.000000 0.000000 0.000000 0.000000 
3.168061 16.718676 -2.265175 105.531218 -84.310282 -121.311956 -7.317578 -3.599268 -2.125202 -25.422998 16.848768 -76.610895 -1.285608 2.323748 40.213394 1.894510 12.940204 9.974830 4.097001 0.000000 -44.092000 11.104283 -1.265369 -4.200884 3.749962 -15.226033 7.114547 0.790635 -2.279367 26.191556 -3.108009 -14.257506 -14.233274 1.245800 0.000001 -59.845900 -8.476280 -0.766720 4.796021 -2.000788 -0.169027 -1.344396 -4.062957 -0.071522 1.882176 9.388525 -22.136044 -8.221913 -0.730779 -0.040092 -0.214026 0.000000 0.000000 0.000000 3.163638 24.340510 -0.109875 -77.949834 22.976736 -8.731747 -4.134322 -28.793071 0.001226 -3.681588 -1.025023 0.031441 -0.121203 -0.028387 -0.000000 0.000000 0.000000 0.000000 0.000000 0.000000 0.000000 8.730565 -17.223044 -2.106472 62.389861 -6.990306 15.050192 1.168650 57.020832 0.002432 -1.781975 5.608910 -0.092123 0.061063 -0.157790 -0.000000 0.000000 0.000000 0.000000 0.000000 0.000000 0.000000 
